<?xml version="1.0" encoding="UTF-8" standalone="no"?>
<!-- Created with Inkscape (http://www.inkscape.org/) -->

<svg
   xmlns:dc="http://purl.org/dc/elements/1.1/"
   xmlns:cc="http://creativecommons.org/ns#"
   xmlns:rdf="http://www.w3.org/1999/02/22-rdf-syntax-ns#"
   xmlns:svg="http://www.w3.org/2000/svg"
   xmlns="http://www.w3.org/2000/svg"
   xmlns:sodipodi="http://sodipodi.sourceforge.net/DTD/sodipodi-0.dtd"
   xmlns:inkscape="http://www.inkscape.org/namespaces/inkscape"
   id="svg2"
   version="1.1"
   inkscape:version="0.91 r13725"
   width="102"
   height="80"
   viewBox="0 0 102 80"
   xml:space="preserve"
   sodipodi:docname="logo.svg"><metadata
     id="metadata8"><rdf:RDF><cc:Work
         rdf:about=""><dc:format>image/svg+xml</dc:format><dc:type
           rdf:resource="http://purl.org/dc/dcmitype/StillImage" /><dc:title></dc:title></cc:Work></rdf:RDF></metadata><defs
     id="defs6"><clipPath
       clipPathUnits="userSpaceOnUse"
       id="clipPath22"><path
         d="M 0,600 800,600 800,0 0,0 0,600 Z"
         id="path24"
         inkscape:connector-curvature="0" /></clipPath><clipPath
       clipPathUnits="userSpaceOnUse"
       id="clipPath44"><path
         d="M 0,600 800,600 800,0 0,0 0,600 Z"
         id="path46"
         inkscape:connector-curvature="0" /></clipPath></defs><sodipodi:namedview
     pagecolor="#ffffff"
     bordercolor="#666666"
     borderopacity="1"
     objecttolerance="10"
     gridtolerance="10"
     guidetolerance="10"
     inkscape:pageopacity="1"
     inkscape:pageshadow="2"
     inkscape:window-width="2560"
     inkscape:window-height="1416"
     id="namedview4"
     showgrid="false"
     inkscape:zoom="1.880904"
     inkscape:cx="-94.526243"
     inkscape:cy="-71.231892"
     inkscape:window-x="0"
     inkscape:window-y="24"
     inkscape:window-maximized="1"
     inkscape:current-layer="g10"
     fit-margin-top="4"
     fit-margin-left="4"
     fit-margin-right="4"
     fit-margin-bottom="4" /><g
     inkscape:groupmode="layer"
     id="layer1"
     inkscape:label="Layer"
     transform="translate(-207.30366,585.93835)"><g
       id="g204-9-5"
       transform="matrix(-0.2898434,2.9105331,1.0702801,1.8447939,321.44575,-497.49322)" /><g
       id="g204-9-0"
       transform="matrix(2.832483,0.72955625,1.9862274,-0.77695871,334.04101,-384.3598)" /><path
       style="fill:none;fill-rule:evenodd;stroke:#909394;stroke-width:2.5;stroke-linecap:butt;stroke-linejoin:miter;stroke-miterlimit:4;stroke-dasharray:none;stroke-opacity:1"
       d="m 224.28954,-569.50774 26.58297,45.05813"
       id="path8766"
       inkscape:connector-curvature="0"
       sodipodi:nodetypes="cc" /><path
       style="fill:none;fill-rule:evenodd;stroke:#909394;stroke-width:2.5;stroke-linecap:butt;stroke-linejoin:miter;stroke-miterlimit:4;stroke-dasharray:none;stroke-opacity:1"
       d="m 270.94263,-558.67519 -19.67138,33.62746"
       id="path8766-5"
       inkscape:connector-curvature="0"
       sodipodi:nodetypes="cc" /><path
       style="fill:none;fill-rule:evenodd;stroke:#909394;stroke-width:2.5;stroke-linecap:butt;stroke-linejoin:miter;stroke-miterlimit:4;stroke-dasharray:none;stroke-opacity:1"
       d="m 291.01277,-524.51607 -40.00735,10e-6"
       id="path8766-6"
       inkscape:connector-curvature="0"
       sodipodi:nodetypes="cc" /></g><g
     id="g10"
     inkscape:groupmode="layer"
     inkscape:label="widgets"
     transform="matrix(1.25,0,0,-1.25,-281.60841,1240.9385)"><g
       id="g82"
       transform="translate(284.98423,971.48637)"
       style="fill:#ad0e08;fill-opacity:1"><path
         d="m 0,0 c 0,-5.065 -4.106,-9.17 -9.171,-9.17 -5.067,0 -9.173,4.105 -9.173,9.17 0,5.067 4.106,9.173 9.173,9.173 C -4.106,9.173 0,5.067 0,0"
         style="fill:#ad0e08;fill-opacity:1;fill-rule:nonzero;stroke:none"
         id="path84"
         inkscape:connector-curvature="0" /></g><path
       inkscape:connector-curvature="0"
       id="path88"
       style="fill:#e05f21;fill-opacity:1;fill-rule:nonzero;stroke:none"
       d="m 303.88813,944.04007 c 0,-6.414 -5.199,-11.612 -11.614,-11.612 -6.412,0 -11.614,5.198 -11.614,11.612 0,6.415 5.202,11.614 11.614,11.614 6.415,0 11.614,-5.199 11.614,-11.614" /><g
       id="g90"
       transform="translate(269.11853,943.75147)"
       style="fill:#154862;fill-opacity:1"><path
         d="m 0,0 c 0,-5.065 -4.107,-9.171 -9.174,-9.171 -5.065,0 -9.172,4.106 -9.172,9.171 0,5.066 4.107,9.173 9.172,9.173 C -4.107,9.173 0,5.066 0,0"
         style="fill:#154862;fill-opacity:1;fill-rule:nonzero;stroke:none"
         id="path92"
         inkscape:connector-curvature="0" /></g><g
       id="g94"
       transform="translate(248.19273,979.69577)"
       style="fill:#e05f21;fill-opacity:1"><path
         d="m 0,0 c 0,-5.441 -4.411,-9.852 -9.854,-9.852 -5.44,0 -9.852,4.411 -9.852,9.852 0,5.442 4.412,9.855 9.852,9.855 C -4.411,9.855 0,5.442 0,0"
         style="fill:#e05f21;fill-opacity:1;fill-rule:nonzero;stroke:none"
         id="path96"
         inkscape:connector-curvature="0" /></g><text
       xml:space="preserve"
       style="font-style:normal;font-weight:normal;font-size:32px;line-height:125%;font-family:Sans;letter-spacing:0px;word-spacing:0px;fill:#000000;fill-opacity:1;stroke:none;stroke-width:1px;stroke-linecap:butt;stroke-linejoin:miter;stroke-opacity:1"
       x="190.44463"
       y="-791.60339"
       id="text9385"
       sodipodi:linespacing="125%"
       transform="scale(1,-1)"><tspan
         sodipodi:role="line"
         id="tspan9387"
         x="190.44463"
         y="-791.60339" /></text>
</g></svg>
